<svg width="24" height="24" viewBox="0 0 24 24" fill="none" xmlns="http://www.w3.org/2000/svg">
<path fill-rule="evenodd" clip-rule="evenodd" d="M19.7131 18.0963C19.5871 17.6264 19.6568 17.1255 19.9062 16.7078C20.7276 15.3319 21.2 13.7239 21.2 12C21.2 6.91898 17.081 2.8 12 2.8C6.91898 2.8 2.8 6.91898 2.8 12C2.8 17.081 6.91898 21.2 12 21.2C13.7275 21.2 15.3387 20.7256 16.7165 19.901C17.1346 19.6508 17.6362 19.5807 18.1068 19.7068L20.3022 20.2951L19.7131 18.0963ZM22.8478 22.8407L17.6409 21.4455C15.9915 22.4326 14.062 23 12 23C5.92487 23 1 18.0751 1 12C1 5.92487 5.92487 1 12 1C18.0751 1 23 5.92487 23 12C23 14.0577 22.435 15.9834 21.4517 17.6305L22.8478 22.8407Z" fill="black"/>
</svg>
