<svg width="24" height="24" viewBox="0 0 24 24" fill="none" xmlns="http://www.w3.org/2000/svg">
<mask id="path-1-inside-1_2162_2693" fill="white">
<path d="M12.2908 4.90685C12.6603 4.52141 13.005 4.11619 13.3967 3.76039C15.5123 1.83687 18.3557 1.45513 20.5639 2.78319C22.8389 4.15202 23.9832 7.03052 23.306 9.75582C22.6918 12.2303 21.1979 14.1835 19.5111 16.0082C17.4487 18.2394 15.0662 20.1011 12.6158 21.8789C12.4625 21.9901 12.119 22.0456 11.9917 21.953C8.62563 19.5019 5.3485 16.9459 2.93761 13.4781C1.85759 11.9264 1.03954 10.2512 1.00124 8.30546C0.950571 5.74075 2.3976 3.39348 4.57618 2.45333C6.76217 1.50948 9.4029 2.08765 11.2713 3.91853C11.5914 4.23232 11.9151 4.54241 12.2908 4.90685Z"/>
</mask>
<path d="M12.2908 4.90685C12.6603 4.52141 13.005 4.11619 13.3967 3.76039C15.5123 1.83687 18.3557 1.45513 20.5639 2.78319C22.8389 4.15202 23.9832 7.03052 23.306 9.75582C22.6918 12.2303 21.1979 14.1835 19.5111 16.0082C17.4487 18.2394 15.0662 20.1011 12.6158 21.8789C12.4625 21.9901 12.119 22.0456 11.9917 21.953C8.62563 19.5019 5.3485 16.9459 2.93761 13.4781C1.85759 11.9264 1.03954 10.2512 1.00124 8.30546C0.950571 5.74075 2.3976 3.39348 4.57618 2.45333C6.76217 1.50948 9.4029 2.08765 11.2713 3.91853C11.5914 4.23232 11.9151 4.54241 12.2908 4.90685Z" fill="#FE0135" stroke="#FE0135" stroke-width="3.6" mask="url(#path-1-inside-1_2162_2693)"/>
</svg>
