<svg width="24" height="24" viewBox="0 0 24 24" fill="none" xmlns="http://www.w3.org/2000/svg">
<g clip-path="url(#clip0_2162_2716)">
<mask id="path-1-inside-1_2162_2716" fill="white">
<path d="M23.1292 3.05005L12.2161 21.952C12.0849 22.1792 11.7459 22.1405 11.6694 21.8896L8.5 11.5L1.08362 3.55476C0.904619 3.36299 1.0406 3.05005 1.30292 3.05005L23.1292 3.05005Z"/>
</mask>
<path d="M8.95015 12.2793L23.5793 3.82938L22.679 2.27071L8.04985 10.7207L8.95015 12.2793ZM23.1292 3.05005L24.688 3.95005C25.0095 3.39313 25.0095 2.70697 24.688 2.15005C24.3665 1.59313 23.7722 1.25005 23.1292 1.25005L23.1292 3.05005ZM8.5 11.5L10.2217 10.9748C10.1417 10.7126 10.0029 10.4721 9.81583 10.2718L8.5 11.5ZM1.30292 3.05005L1.30292 1.25005L1.30292 3.05005ZM1.08362 3.55476L2.39945 2.32651L1.08362 3.55476ZM12.2161 21.952L10.6573 21.052L12.2161 21.952ZM11.6694 21.8896L9.94768 22.4148L11.6694 21.8896ZM21.5703 2.15005L10.6573 21.052L13.7749 22.852L24.688 3.95005L21.5703 2.15005ZM1.30292 4.85005L23.1292 4.85005L23.1292 1.25005L1.30292 1.25005L1.30292 4.85005ZM13.391 21.3644L10.2217 10.9748L6.77832 12.0252L9.94768 22.4148L13.391 21.3644ZM9.81583 10.2718L2.39945 2.32651L-0.232215 4.783L7.18417 12.7282L9.81583 10.2718ZM1.30292 1.25005C-0.533328 1.25005 -1.4852 3.44067 -0.232215 4.783L2.39945 2.32651C3.29444 3.28532 2.61453 4.85005 1.30292 4.85005L1.30292 1.25005ZM10.6573 21.052C11.3131 19.9161 13.0083 20.1097 13.391 21.3644L9.94768 22.4148C10.4835 24.1712 12.8568 24.4424 13.7749 22.852L10.6573 21.052Z" fill="black" mask="url(#path-1-inside-1_2162_2716)"/>
</g>
<defs>
<clipPath id="clip0_2162_2716">
<rect width="24" height="24" fill="white"/>
</clipPath>
</defs>
</svg>
