<svg width="24" height="24" viewBox="0 0 24 24" fill="none" xmlns="http://www.w3.org/2000/svg">
<path fill-rule="evenodd" clip-rule="evenodd" d="M15.4286 8.91427C16.5647 8.91427 17.4857 7.99325 17.4857 6.85713C17.4857 5.721 16.5647 4.79998 15.4286 4.79998C14.2925 4.79998 13.3715 5.721 13.3715 6.85713C13.3715 7.99325 14.2925 8.91427 15.4286 8.91427ZM15.4286 11.1428C17.7955 11.1428 19.7143 9.22406 19.7143 6.85713C19.7143 4.49019 17.7955 2.57141 15.4286 2.57141C13.0617 2.57141 11.1429 4.49019 11.1429 6.85713C11.1429 9.22406 13.0617 11.1428 15.4286 11.1428Z" fill="black"/>
<path fill-rule="evenodd" clip-rule="evenodd" d="M7.45715 18.8571C7.45715 15.4014 10.2586 12.6 13.7143 12.6H17.1429C20.5986 12.6 23.4 15.4014 23.4 18.8571V20.5714H21.1714V18.8571C21.1714 16.6322 19.3678 14.8285 17.1429 14.8285H13.7143C11.4894 14.8285 9.68572 16.6322 9.68572 18.8571V20.5714H7.45715V18.8571Z" fill="black"/>
<path fill-rule="evenodd" clip-rule="evenodd" d="M6.04276 6.85718C6.65816 6.85718 7.15704 7.35606 7.15704 7.97146L7.15704 14.3143C7.15704 14.9297 6.65816 15.4286 6.04276 15.4286C5.42735 15.4286 4.92847 14.9297 4.92847 14.3143V7.97146C4.92847 7.35606 5.42735 6.85718 6.04276 6.85718Z" fill="black"/>
<path fill-rule="evenodd" clip-rule="evenodd" d="M1.71429 11.0572C1.71429 10.4418 2.21318 9.94287 2.82858 9.94287H9.17144C9.78684 9.94287 10.2857 10.4418 10.2857 11.0572C10.2857 11.6726 9.78684 12.1714 9.17144 12.1714H2.82858C2.21318 12.1714 1.71429 11.6726 1.71429 11.0572Z" fill="black"/>
</svg>
